<?xml version="1.0" standalone="no"?>
<!DOCTYPE svg PUBLIC "-//W3C//DTD SVG 20010904//EN"
 "http://www.w3.org/TR/2001/REC-SVG-20010904/DTD/svg10.dtd">
<svg version="1.0" xmlns="http://www.w3.org/2000/svg"
 width="512.000000pt" height="512.000000pt" viewBox="0 0 512.000000 512.000000"
 preserveAspectRatio="xMidYMid meet">

<g transform="translate(0.000000,512.000000) scale(0.100000,-0.100000)"
fill="#000000" stroke="none">
<path d="M1594 4816 c-202 -94 -188 -382 22 -458 l34 -12 0 -96 0 -95 150
-150 150 -150 0 -112 0 -112 -52 24 c-110 51 -161 30 -319 -131 -149 -151
-164 -195 -108 -306 11 -21 19 -40 19 -43 0 -3 -51 -5 -114 -5 l-113 0 -146
150 -146 150 -99 0 -98 0 -12 34 c-60 164 -262 220 -393 107 -85 -72 -111
-188 -65 -286 45 -96 121 -145 223 -145 107 0 207 70 235 163 l11 37 76 0 75
0 156 -155 156 -155 156 0 156 0 12 -35 c9 -27 8 -40 -2 -62 -11 -24 -33 -35
-148 -75 -74 -27 -146 -56 -159 -66 -42 -31 -61 -80 -61 -159 l0 -73 -209 0
-209 0 -12 36 c-37 111 -172 182 -290 154 -174 -42 -246 -249 -137 -392 59
-76 160 -111 256 -88 66 16 143 83 167 145 l17 45 208 0 209 0 0 -61 c0 -70
20 -121 60 -149 15 -11 85 -40 156 -65 71 -25 135 -53 142 -62 15 -20 16 -67
2 -94 -10 -17 -23 -19 -162 -19 l-152 0 -156 -155 -156 -155 -75 0 -76 0 -11
38 c-28 93 -129 162 -237 162 -77 0 -130 -24 -182 -83 -140 -160 -27 -406 188
-407 102 0 195 67 231 166 l12 34 99 0 99 0 145 150 145 150 114 0 113 0 -24
-52 c-50 -107 -32 -155 118 -307 154 -155 201 -175 305 -126 30 14 56 25 58
25 2 0 4 -51 4 -114 l0 -113 -150 -147 -150 -146 0 -98 0 -97 -55 -24 c-150
-64 -194 -257 -87 -381 91 -107 244 -119 349 -27 59 52 83 105 83 182 0 108
-69 209 -162 237 l-38 11 0 76 0 75 155 156 155 156 0 156 0 156 34 12 c28 9
40 8 64 -4 25 -13 35 -32 73 -143 24 -70 53 -140 64 -157 32 -47 79 -66 162
-66 l73 0 0 -209 0 -209 -36 -12 c-20 -7 -58 -33 -84 -59 -168 -162 -35 -442
197 -418 200 21 291 257 157 406 -28 31 -62 56 -89 67 l-45 17 0 208 0 209 61
0 c67 0 119 20 148 56 10 12 37 78 61 146 47 136 69 168 112 168 66 0 68 -5
68 -172 l0 -152 155 -156 155 -156 0 -75 0 -76 -41 -12 c-55 -16 -131 -93
-147 -147 -17 -60 -15 -142 7 -189 23 -51 98 -118 149 -133 96 -29 199 1 263
77 113 131 57 333 -107 393 l-34 12 0 99 0 100 -150 145 -150 144 0 114 0 113
53 -24 c109 -51 160 -30 318 131 149 151 164 195 108 306 -11 21 -19 40 -19
43 0 3 51 5 114 5 l113 0 146 -150 146 -150 99 0 98 0 12 -34 c51 -139 205
-205 337 -142 115 54 170 176 133 298 -15 51 -82 126 -133 149 -47 22 -129 24
-189 7 -54 -16 -131 -92 -147 -147 l-12 -41 -76 0 -75 0 -156 155 -156 155
-156 0 -156 0 -12 35 c-9 27 -8 40 2 62 11 24 33 35 146 75 73 26 145 56 161
67 41 29 61 79 61 150 l0 61 209 0 208 0 17 -45 c38 -99 159 -167 270 -151
101 16 192 113 203 219 14 133 -78 250 -214 272 -99 16 -223 -56 -259 -151
l-17 -44 -208 0 -209 0 0 73 c0 79 -18 128 -61 159 -13 10 -79 37 -147 61
-140 49 -162 64 -162 108 0 67 4 69 172 69 l152 0 156 155 156 155 75 0 76 0
11 -37 c38 -127 212 -201 337 -144 89 40 152 149 142 245 -26 254 -368 313
-468 81 l-24 -55 -95 0 -95 0 -150 -150 -150 -150 -112 0 -112 0 24 53 c51
108 30 160 -126 314 -152 150 -190 165 -301 119 l-58 -24 0 113 0 112 150 146
150 146 0 99 0 98 34 12 c99 36 166 129 166 231 -1 166 -157 285 -315 241 -56
-16 -132 -81 -156 -135 -57 -126 16 -298 144 -337 l37 -11 0 -76 0 -75 -155
-156 -155 -156 0 -157 0 -156 -32 -9 c-22 -6 -43 -5 -63 3 -27 10 -35 24 -78
146 -26 74 -55 145 -65 158 -30 40 -80 61 -149 61 l-63 0 0 208 0 207 44 18
c185 76 208 330 39 437 -151 96 -351 3 -378 -176 -15 -101 56 -224 151 -260
l44 -17 0 -208 0 -209 -71 0 c-79 0 -128 -18 -159 -57 -10 -13 -38 -81 -61
-150 -23 -69 -50 -134 -60 -144 -21 -21 -69 -25 -100 -9 -17 10 -19 23 -19
162 l0 152 -155 156 -155 156 0 75 0 76 38 11 c124 38 198 205 146 330 -52
125 -207 185 -330 128z m166 -88 c85 -44 111 -125 68 -207 -57 -110 -214 -107
-269 6 -40 83 -1 178 86 208 54 19 64 18 115 -7z m895 -8 c92 -57 89 -194 -5
-257 -93 -64 -230 10 -230 124 0 127 127 199 235 133z m834 5 c53 -27 81 -71
81 -126 0 -82 -45 -141 -117 -155 -116 -22 -211 95 -167 205 31 79 128 115
203 76z m-747 -904 c17 -14 37 -57 68 -146 45 -134 74 -179 127 -201 61 -26
102 -18 232 46 67 33 134 60 149 60 21 0 52 -25 145 -118 100 -100 117 -122
117 -149 0 -19 -25 -82 -60 -154 -65 -132 -70 -161 -41 -225 27 -58 57 -78
196 -124 170 -57 165 -50 165 -250 0 -199 4 -193 -155 -245 -170 -56 -214 -92
-222 -182 -5 -44 1 -60 56 -171 38 -76 61 -134 61 -154 0 -28 -17 -49 -116
-150 -93 -96 -120 -118 -143 -118 -16 0 -84 27 -152 60 -132 64 -172 72 -232
46 -54 -22 -82 -67 -127 -201 -57 -170 -49 -165 -251 -165 -196 0 -191 -3
-244 157 -54 165 -92 212 -182 220 -44 5 -60 -1 -171 -56 -74 -37 -134 -61
-154 -61 -28 0 -48 16 -150 117 -92 91 -118 124 -118 144 0 15 27 82 60 150
65 134 72 175 44 235 -26 55 -66 80 -199 124 -72 24 -135 51 -146 63 -17 19
-19 36 -19 180 0 153 6 191 34 209 6 4 66 26 133 48 67 23 134 51 149 62 32
25 63 91 64 133 0 17 -29 90 -66 166 -64 134 -65 137 -51 170 18 42 217 239
243 240 40 3 60 -4 176 -62 131 -64 160 -69 224 -40 58 27 78 57 124 194 22
67 44 127 48 133 19 28 53 33 203 34 140 0 159 -2 181 -19z m-2133 -269 c96
-71 93 -202 -5 -260 -100 -59 -227 15 -227 133 0 117 141 195 232 127z m4048
8 c46 -21 77 -62 88 -117 8 -42 -26 -117 -67 -146 -41 -31 -115 -33 -162 -5
-104 61 -99 215 8 268 51 25 79 25 133 0z m-4046 -883 c62 -41 87 -133 55
-195 -66 -126 -249 -109 -286 26 -19 72 13 141 85 180 35 20 109 14 146 -11z
m4042 12 c101 -52 123 -172 46 -248 -122 -123 -320 23 -241 179 34 68 131 102
195 69z m-4081 -849 c45 -13 95 -68 104 -116 19 -105 -77 -197 -182 -174 -21
5 -52 24 -72 44 -30 29 -36 43 -39 88 -5 69 19 114 77 145 49 26 60 27 112 13z
m4088 -12 c59 -31 83 -76 77 -146 -3 -45 -9 -59 -39 -88 -137 -138 -345 55
-216 201 49 56 110 67 178 33z m-2890 -1166 c49 -26 83 -93 77 -151 -16 -149
-216 -185 -284 -51 -28 54 -29 82 -3 135 37 76 134 107 210 67z m880 -5 c131
-87 74 -281 -82 -281 -149 0 -204 206 -76 284 46 28 115 26 158 -3z m840 5
c52 -26 80 -74 80 -139 0 -49 -4 -58 -38 -95 -35 -37 -45 -42 -95 -46 -73 -6
-121 22 -149 85 -57 129 77 258 202 195z"/>
<path d="M2467 3159 c-177 -26 -354 -153 -439 -314 -53 -101 -71 -175 -71
-280 0 -170 58 -311 178 -430 239 -240 611 -240 850 0 119 118 178 259 178
420 0 311 -219 561 -527 604 -86 12 -87 12 -169 0z m216 -104 c229 -60 387
-262 387 -495 0 -330 -318 -577 -635 -495 -382 100 -514 577 -236 856 124 124
317 178 484 134z"/>
</g>
</svg>
